<?xml version="1.0" standalone="no"?>
<!DOCTYPE svg PUBLIC "-//W3C//DTD SVG 20010904//EN"
 "http://www.w3.org/TR/2001/REC-SVG-20010904/DTD/svg10.dtd">
<svg version="1.0" xmlns="http://www.w3.org/2000/svg"
 width="190.000000pt" height="144.000000pt" viewBox="0 0 190.000000 144.000000"
 preserveAspectRatio="xMidYMid meet">

<g transform="translate(0.000000,144.000000) scale(0.100000,-0.100000)"
fill="#ffffff" stroke="none">
<path d="M873 1299 c-50 -24 -103 -81 -134 -141 -12 -24 -62 -139 -110 -257
-49 -117 -91 -216 -94 -219 -3 -3 -57 16 -120 41 -136 56 -175 59 -216 18 -41
-42 -38 -77 26 -303 66 -231 71 -245 102 -265 32 -21 100 -19 125 4 30 27 40
50 223 498 91 226 177 429 190 451 50 85 141 93 203 18 17 -20 57 -97 90 -172
58 -132 62 -137 91 -137 17 0 40 -10 55 -24 36 -34 57 -23 45 27 -14 65 -146
341 -185 389 -71 87 -198 118 -291 72z m-428 -723 c19 -8 35 -21 35 -28 0 -8
-15 -49 -33 -93 -19 -44 -37 -89 -41 -99 -4 -12 -10 -16 -16 -10 -12 12 -89
272 -83 278 5 4 47 -10 138 -48z"/>
<path d="M1402 857 c-6 -6 -12 -28 -14 -47 -2 -25 -10 -38 -29 -49 -28 -16
-28 -16 -95 34 -10 7 -24 0 -51 -27 l-36 -37 26 -35 c15 -19 27 -42 27 -50 0
-25 -37 -56 -68 -56 -38 0 -52 -17 -52 -62 0 -41 19 -58 63 -58 27 0 57 -28
57 -53 0 -8 -12 -30 -26 -47 l-27 -31 20 -26 c29 -40 50 -50 71 -35 41 29 63
36 90 26 18 -6 28 -18 30 -34 7 -68 9 -70 62 -70 53 0 55 2 62 70 2 16 12 28
30 34 27 10 49 3 90 -26 21 -15 42 -5 71 35 l20 26 -27 31 c-14 17 -26 39 -26
49 0 25 32 51 61 51 41 0 50 13 47 66 -3 48 -3 49 -42 55 -66 11 -79 49 -35
109 l23 30 -34 35 c-39 40 -50 43 -75 15 -20 -22 -74 -27 -93 -8 -7 7 -12 26
-12 43 0 17 -5 36 -12 43 -16 16 -83 15 -96 -1z m132 -186 c47 -26 69 -65 74
-128 3 -48 0 -64 -20 -92 -39 -58 -72 -76 -138 -76 -63 0 -95 16 -133 67 -25
33 -33 105 -17 152 28 87 147 126 234 77z"/>
<path d="M1420 653 c-59 -18 -94 -61 -79 -98 4 -11 8 -39 8 -63 1 -37 5 -45
34 -62 53 -32 74 -27 88 22 19 73 -16 212 -51 201z"/>
<path d="M751 517 c-5 -12 -15 -38 -24 -58 l-15 -37 36 -14 c21 -9 116 -47
212 -86 96 -39 193 -74 215 -78 l40 -7 -34 38 c-26 30 -32 44 -29 71 l4 33
-199 80 c-194 78 -198 79 -206 58z"/>
</g>
</svg>
